# xmcd CD database file
#
# Track frame offsets:
#	150
#	30712
#	49392
#	82345
#	114062
#	151592
#	170845
#	205405
#	234812
#	248662
#	314015
#
# Disc length: 4397 seconds
#
# Revision: 0
# Processed by: cddbd v1.5.1PL0 Copyright (c) Steve Scherf et al.
# Submitted via: CDex 1.51
#
DISCID=8c112b0b
DTITLE=Working Blues band - recorded live in St. Wendel
DYEAR=1998
DGENRE=Blues
TTITLE0=Wash Out/Sail On
TTITLE1=Divin' Duck
TTITLE2=Ain't Doin Too Bad
TTITLE3=Love In Vain
TTITLE4=Who's Out There
TTITLE5=I Get Evil
TTITLE6=Got to Hurry
TTITLE7=Cold Cold Feeling
TTITLE8=I'm Tore Down
TTITLE9=Get Out Of My Live, Woman
TTITLE10=Suzie Q.
EXTD=YEAR: 1998
EXTT0=
EXTT1=
EXTT2=
EXTT3=
EXTT4=
EXTT5=
EXTT6=
EXTT7=
EXTT8=
EXTT9=
EXTT10=
PLAYORDER=
